<?xml version="1.0" encoding="UTF-8"?>
<svg width="161px" height="59px" viewBox="0 0 161 59" version="1.1" xmlns="http://www.w3.org/2000/svg" xmlns:xlink="http://www.w3.org/1999/xlink">
    <!-- Generator: Sketch 50.2 (55047) - http://www.bohemiancoding.com/sketch -->
    <title>airship</title>
    <desc>Created with Sketch.</desc>
    <defs></defs>
    <g id="Page-1" stroke="none" stroke-width="1" fill="none" fill-rule="evenodd">
        <g id="Desktop-HD" transform="translate(-390.000000, -50.000000)" fill="#01A7B9">
            <path d="M391.611111,68.2592593 C395.018536,66.3333237 398.499982,65.3703704 402.055556,65.3703704 C405.117299,65.3703704 407.4753,66.074067 409.12963,67.4814815 C410.783959,68.8888959 411.611111,71.1234415 411.611111,74.1851852 L411.611111,91.2962963 L415.314815,91.2962963 L415.314815,95 L407.611111,95 L407.388889,91.6666667 L407.240741,91.5925926 C404.870359,94.3580385 401.956807,95.7407407 398.5,95.7407407 C395.932086,95.7407407 393.895069,94.9876619 392.388889,93.4814815 C390.882709,91.9753011 390.12963,90.06174 390.12963,87.7407407 C390.12963,84.6296141 391.475295,82.3086496 394.166667,80.7777778 C396.858038,79.2469059 400.771579,78.4814815 405.907407,78.4814815 L407.166667,78.4814815 L407.166667,74.1111111 C407.166667,72.2839415 406.734572,70.9876581 405.87037,70.2222222 C405.006169,69.4567863 403.561739,69.0740741 401.537037,69.0740741 C399.117272,69.0740741 397.092601,69.4691319 395.462963,70.2592593 L395.462963,74.2592593 L391.611111,74.2592593 L391.611111,68.2592593 Z M405.388889,81.6666667 C401.981464,81.6666667 399.364207,82.0987611 397.537037,82.962963 C395.709867,83.8271648 394.796296,85.3456681 394.796296,87.5185185 C394.796296,89.0987733 395.240736,90.24691 396.12963,90.962963 C397.018523,91.6790159 398.154314,92.037037 399.537037,92.037037 C402.500015,92.037037 405.043199,90.8271726 407.166667,88.4074074 L407.166667,81.6666667 L405.388889,81.6666667 Z M418.277778,91.2962963 L421.981481,91.2962963 L421.981481,69.8148148 L418.277778,69.8148148 L418.277778,66.1111111 L426.425926,66.1111111 L426.425926,91.2962963 L430.12963,91.2962963 L430.12963,95 L418.277778,95 L418.277778,91.2962963 Z M420.722222,58.2592593 C420.722222,57.222217 421.00617,56.4197559 421.574074,55.8518519 C422.141978,55.2839478 422.919748,55 423.907407,55 C424.845684,55 425.611108,55.2839478 426.203704,55.8518519 C426.796299,56.4197559 427.092593,57.1728348 427.092593,58.1111111 C427.092593,59.0987704 426.796299,59.8765404 426.203704,60.4444444 C425.611108,61.0123485 424.820993,61.2962963 423.833333,61.2962963 C422.895057,61.2962963 422.141978,61.0123485 421.574074,60.4444444 C421.00617,59.8765404 420.722222,59.1481526 420.722222,58.2592593 Z M433.833333,91.2962963 L437.537037,91.2962963 L437.537037,69.8148148 L433.833333,69.8148148 L433.833333,66.1111111 L441.759259,66.1111111 L441.981481,70.2592593 L442.12963,70.2592593 C443.067906,68.6790044 444.104933,67.5185222 445.240741,66.7777778 C446.376549,66.0370333 447.73456,65.6666667 449.314815,65.6666667 C449.90741,65.6666667 450.425924,65.7160489 450.87037,65.8148148 L450.87037,70.4814815 C450.129626,70.3333326 449.364201,70.2592593 448.574074,70.2592593 C447.141968,70.2592593 445.895067,70.5925893 444.833333,71.2592593 C443.7716,71.9259293 442.820992,72.9999926 441.981481,74.4814815 L441.981481,91.2962963 L446.425926,91.2962963 L446.425926,95 L433.833333,95 L433.833333,91.2962963 Z M463.018519,95.7407407 C459.956775,95.7407407 457.141988,95.1481541 454.574074,93.962963 L454.574074,87.5925926 L458.425926,87.5925926 L458.425926,91.4444444 C459.907415,91.8888911 461.537028,92.1111111 463.314815,92.1111111 C465.537048,92.1111111 467.104934,91.7283989 468.018519,90.962963 C468.932103,90.197527 469.388889,89.1234637 469.388889,87.7407407 C469.388889,86.4567837 468.845684,85.4321026 467.759259,84.6666667 C466.672834,83.9012307 464.969147,83.0987696 462.648148,82.2592593 C459.388873,81.0740681 457.166673,79.8024759 455.981481,78.4444444 C454.79629,77.086413 454.203704,75.4938363 454.203704,73.6666667 C454.203704,71.2469015 455.166657,69.259267 457.092593,67.7037037 C459.018528,66.1481404 461.487639,65.3703704 464.5,65.3703704 C467.265446,65.3703704 469.882704,65.962957 472.351852,67.1481481 L472.351852,73.5185185 L468.5,73.5185185 L468.5,69.5925926 C467.364192,69.1481459 465.956799,68.9259259 464.277778,68.9259259 C462.401225,68.9259259 460.993832,69.3086381 460.055556,70.0740741 C459.117279,70.83951 458.648148,71.8395 458.648148,73.0740741 C458.648148,74.3086481 459.154316,75.283947 460.166667,76 C461.179017,76.716053 462.771594,77.4691319 464.944444,78.2592593 C468.055571,79.3456844 470.314808,80.5555489 471.722222,81.8888889 C473.129637,83.2222289 473.833333,84.9999889 473.833333,87.2222222 C473.833333,89.7901363 472.845689,91.8518441 470.87037,93.4074074 C468.895052,94.9629707 466.277794,95.7407407 463.018519,95.7407407 Z M481.240741,54.2592593 L477.537037,54.2592593 L477.537037,50.5555556 L485.685185,50.5555556 L485.685185,69.5185185 L485.759259,69.5185185 C488.425939,66.7530726 491.462946,65.3703704 494.87037,65.3703704 C497.339519,65.3703704 499.14197,66.074067 500.277778,67.4814815 C501.413586,68.8888959 501.981481,70.8765304 501.981481,73.4444444 L501.981481,91.2962963 L505.685185,91.2962963 L505.685185,95 L494.574074,95 L494.574074,91.2962963 L497.537037,91.2962963 L497.537037,74.037037 C497.537037,72.0617185 497.191361,70.7407441 496.5,70.0740741 C495.808639,69.4074041 494.845685,69.0740741 493.611111,69.0740741 C490.746899,69.0740741 488.10495,70.4814674 485.685185,73.2962963 L485.685185,91.2962963 L488.648148,91.2962963 L488.648148,95 L477.537037,95 L477.537037,91.2962963 L481.240741,91.2962963 L481.240741,54.2592593 Z M509.388889,91.2962963 L513.092593,91.2962963 L513.092593,69.8148148 L509.388889,69.8148148 L509.388889,66.1111111 L517.537037,66.1111111 L517.537037,91.2962963 L521.240741,91.2962963 L521.240741,95 L509.388889,95 L509.388889,91.2962963 Z M511.833333,58.2592593 C511.833333,57.222217 512.117281,56.4197559 512.685185,55.8518519 C513.253089,55.2839478 514.030859,55 515.018519,55 C515.956795,55 516.722219,55.2839478 517.314815,55.8518519 C517.90741,56.4197559 518.203704,57.1728348 518.203704,58.1111111 C518.203704,59.0987704 517.90741,59.8765404 517.314815,60.4444444 C516.722219,61.0123485 515.932104,61.2962963 514.944444,61.2962963 C514.006168,61.2962963 513.253089,61.0123485 512.685185,60.4444444 C512.117281,59.8765404 511.833333,59.1481526 511.833333,58.2592593 Z M532.5,66.1111111 L532.722222,68.4814815 L532.87037,68.4814815 C535.092604,66.407397 537.586406,65.3703704 540.351852,65.3703704 C543.512361,65.3703704 546.055546,66.6666537 547.981481,69.2592593 C549.907417,71.8518648 550.87037,75.2715837 550.87037,79.5185185 C550.87037,84.3580489 549.697543,88.27159 547.351852,91.2592593 C545.006161,94.2469285 542.030882,95.7407407 538.425926,95.7407407 C536.549373,95.7407407 534.69754,95.2963007 532.87037,94.4074074 L532.722222,94.4814815 L532.722222,104.62963 L537.166667,104.62963 L537.166667,108.333333 L524.574074,108.333333 L524.574074,104.62963 L528.277778,104.62963 L528.277778,69.8148148 L524.574074,69.8148148 L524.574074,66.1111111 L532.5,66.1111111 Z M532.722222,90.9259259 C534.203711,91.6666704 535.932089,92.037037 537.907407,92.037037 C540.524704,92.037037 542.561721,91.0740837 544.018519,89.1481481 C545.475316,87.2222126 546.203704,84.2592793 546.203704,80.2592593 C546.203704,76.4073881 545.561735,73.5802559 544.277778,71.7777778 C542.993821,69.9752996 541.265443,69.0740741 539.092593,69.0740741 C536.72221,69.0740741 534.598775,70.1357919 532.722222,72.2592593 L532.722222,90.9259259 Z" id="airship"></path>
        </g>
    </g>
</svg>